<?xml version="1.0" encoding="UTF-8"?>
<svg xmlns="http://www.w3.org/2000/svg" xmlns:xlink="http://www.w3.org/1999/xlink" width="128px" height="128px" viewBox="0 0 128 128" version="1.1">
<g id="surface1">
<path style=" stroke:none;fill-rule:nonzero;fill:rgb(71.764708%,25.098041%,24.313726%);fill-opacity:1;" d="M 91.84375 7.375 C 97.714844 13.117188 106.484375 23.035156 106.570312 31.734375 C 106.605469 35.164062 105.351562 37.324219 103.355469 39.984375 C 101.289062 40.09375 99.011719 39.976562 96.914062 39.980469 L 83.363281 40 C 82.589844 37.023438 81.449219 33.988281 80.042969 31.25 C 79.515625 30.210938 78.789062 29.253906 78.3125 28.195312 L 78.277344 28.117188 C 78.40625 27.035156 78.613281 25.992188 78.972656 24.960938 C 81.113281 18.824219 87.425781 12.117188 91.84375 7.375 Z M 91.84375 7.375 "/>
<path style=" stroke:none;fill-rule:nonzero;fill:rgb(99.607843%,99.607843%,99.607843%);fill-opacity:1;" d="M 91.808594 25.433594 C 92.539062 25.824219 95.445312 28.945312 96.238281 29.722656 C 95.652344 30.425781 94.945312 31.058594 94.300781 31.707031 C 93.472656 32.546875 92.65625 33.398438 91.855469 34.257812 C 91.242188 33.695312 90.675781 33.050781 90.089844 32.453125 C 89.21875 31.5625 88.320312 30.695312 87.4375 29.8125 C 88.828125 28.289062 90.347656 26.890625 91.808594 25.433594 Z M 91.808594 25.433594 "/>
<path style=" stroke:none;fill-rule:nonzero;fill:rgb(71.764708%,25.098041%,24.313726%);fill-opacity:1;" d="M 38.023438 85.460938 C 39.71875 85.804688 41.394531 86.089844 43.125 86.179688 C 44.351562 86.242188 45.601562 86.1875 46.820312 86.292969 C 47.363281 86.636719 47.980469 86.894531 48.542969 87.207031 C 52.523438 89.378906 55.707031 93.1875 56.964844 97.554688 C 58.179688 101.765625 57.652344 106.621094 55.519531 110.457031 C 55.453125 110.578125 55.382812 110.699219 55.316406 110.820312 C 55.246094 110.941406 55.171875 111.0625 55.101562 111.179688 C 55.027344 111.296875 54.953125 111.414062 54.878906 111.53125 C 54.800781 111.648438 54.722656 111.765625 54.644531 111.878906 C 54.566406 111.996094 54.488281 112.109375 54.40625 112.222656 C 54.324219 112.335938 54.242188 112.445312 54.15625 112.558594 C 54.074219 112.667969 53.988281 112.777344 53.898438 112.886719 C 53.8125 112.996094 53.726562 113.101562 53.636719 113.210938 C 53.546875 113.316406 53.453125 113.421875 53.363281 113.523438 C 53.269531 113.628906 53.175781 113.734375 53.082031 113.835938 C 52.988281 113.9375 52.890625 114.039062 52.792969 114.136719 C 52.695312 114.238281 52.597656 114.335938 52.5 114.433594 C 52.398438 114.527344 52.296875 114.625 52.195312 114.71875 C 52.09375 114.8125 51.992188 114.90625 51.886719 115 C 51.78125 115.09375 51.675781 115.183594 51.570312 115.273438 C 51.464844 115.363281 51.355469 115.449219 51.246094 115.535156 C 51.136719 115.625 51.027344 115.707031 50.917969 115.792969 C 50.804688 115.878906 50.695312 115.960938 50.582031 116.042969 C 50.46875 116.121094 50.355469 116.203125 50.238281 116.28125 C 50.125 116.359375 50.007812 116.4375 49.890625 116.511719 C 49.773438 116.585938 49.65625 116.660156 49.539062 116.734375 C 49.417969 116.808594 49.300781 116.878906 49.179688 116.949219 C 49.058594 117.019531 48.9375 117.085938 48.816406 117.152344 C 48.691406 117.21875 48.570312 117.285156 48.445312 117.347656 C 48.324219 117.414062 48.199219 117.472656 48.074219 117.535156 C 47.949219 117.597656 47.820312 117.65625 47.695312 117.710938 C 47.566406 117.769531 47.441406 117.824219 47.3125 117.878906 C 47.183594 117.933594 47.054688 117.988281 46.925781 118.039062 C 46.796875 118.089844 46.667969 118.140625 46.535156 118.1875 C 46.40625 118.234375 46.273438 118.28125 46.140625 118.324219 C 46.011719 118.371094 45.878906 118.414062 45.746094 118.457031 C 45.613281 118.496094 45.480469 118.535156 45.34375 118.574219 C 45.214844 118.609375 45.082031 118.644531 44.949219 118.679688 C 44.816406 118.710938 44.683594 118.742188 44.550781 118.773438 C 44.417969 118.800781 44.285156 118.832031 44.152344 118.855469 C 44.019531 118.882812 43.882812 118.910156 43.75 118.929688 C 43.617188 118.953125 43.480469 118.976562 43.347656 118.996094 C 43.210938 119.015625 43.078125 119.035156 42.941406 119.050781 C 42.804688 119.066406 42.671875 119.082031 42.535156 119.097656 C 42.398438 119.109375 42.261719 119.121094 42.128906 119.132812 C 41.992188 119.140625 41.855469 119.148438 41.71875 119.15625 C 41.582031 119.164062 41.449219 119.167969 41.3125 119.171875 C 41.175781 119.175781 41.039062 119.175781 40.902344 119.175781 C 40.765625 119.175781 40.628906 119.175781 40.492188 119.171875 C 40.359375 119.167969 40.222656 119.164062 40.085938 119.15625 C 39.949219 119.148438 39.8125 119.140625 39.675781 119.132812 C 39.542969 119.121094 39.40625 119.109375 39.269531 119.097656 C 39.132812 119.082031 39 119.066406 38.863281 119.050781 C 38.726562 119.035156 38.59375 119.015625 38.457031 118.996094 C 38.324219 118.976562 38.1875 118.953125 38.054688 118.929688 C 37.921875 118.90625 37.785156 118.882812 37.652344 118.855469 C 37.519531 118.832031 37.386719 118.800781 37.253906 118.773438 C 37.121094 118.742188 36.988281 118.710938 36.855469 118.679688 C 36.722656 118.644531 36.589844 118.609375 36.460938 118.574219 C 36.328125 118.539062 36.199219 118.5 36.066406 118.460938 C 35.9375 118.421875 35.808594 118.378906 35.679688 118.335938 C 35.546875 118.296875 35.417969 118.25 35.292969 118.203125 C 35.164062 118.160156 35.035156 118.113281 34.90625 118.0625 C 34.78125 118.015625 34.652344 117.964844 34.527344 117.910156 C 34.402344 117.859375 34.277344 117.804688 34.152344 117.75 C 34.027344 117.695312 33.902344 117.640625 33.78125 117.582031 C 33.65625 117.523438 33.535156 117.464844 33.414062 117.402344 C 33.292969 117.339844 33.171875 117.277344 33.050781 117.214844 C 32.929688 117.152344 32.808594 117.085938 32.691406 117.019531 C 28.917969 114.878906 25.882812 111.0625 24.75 106.871094 C 24.714844 106.730469 24.675781 106.59375 24.644531 106.453125 C 24.609375 106.3125 24.578125 106.175781 24.546875 106.035156 C 24.515625 105.894531 24.488281 105.753906 24.460938 105.613281 C 24.433594 105.472656 24.40625 105.332031 24.382812 105.191406 C 24.359375 105.050781 24.339844 104.90625 24.316406 104.765625 C 24.296875 104.625 24.28125 104.480469 24.261719 104.339844 C 24.246094 104.195312 24.230469 104.054688 24.21875 103.910156 C 24.203125 103.769531 24.191406 103.625 24.183594 103.484375 C 24.171875 103.339844 24.164062 103.195312 24.160156 103.054688 C 24.152344 102.910156 24.148438 102.765625 24.144531 102.625 C 24.144531 102.480469 24.140625 102.335938 24.144531 102.195312 C 24.144531 102.050781 24.148438 101.90625 24.152344 101.765625 C 24.15625 101.621094 24.160156 101.476562 24.167969 101.335938 C 24.175781 101.191406 24.1875 101.046875 24.199219 100.90625 C 24.207031 100.761719 24.222656 100.621094 24.238281 100.476562 C 24.25 100.335938 24.269531 100.191406 24.285156 100.050781 C 24.304688 99.910156 24.324219 99.765625 24.347656 99.625 C 24.367188 99.484375 24.390625 99.339844 24.417969 99.199219 C 24.441406 99.058594 24.46875 98.917969 24.496094 98.777344 C 24.527344 98.636719 24.558594 98.496094 24.589844 98.359375 C 24.621094 98.21875 24.65625 98.078125 24.691406 97.941406 C 24.726562 97.800781 24.761719 97.664062 24.800781 97.523438 C 24.839844 97.386719 24.882812 97.25 24.921875 97.113281 C 24.964844 96.976562 25.011719 96.839844 25.054688 96.703125 C 25.101562 96.566406 25.148438 96.433594 25.195312 96.296875 C 25.246094 96.164062 25.296875 96.027344 25.347656 95.894531 C 25.402344 95.761719 25.453125 95.628906 25.511719 95.496094 C 25.566406 95.363281 25.621094 95.234375 25.679688 95.101562 C 25.742188 94.972656 25.800781 94.839844 25.863281 94.710938 C 25.925781 94.582031 25.988281 94.453125 26.050781 94.328125 C 26.117188 94.199219 26.183594 94.070312 26.253906 93.945312 C 26.320312 93.820312 26.390625 93.695312 26.460938 93.570312 C 28.289062 90.425781 31.320312 87.78125 34.707031 86.445312 C 35.769531 86.027344 36.921875 85.757812 38.023438 85.460938 Z M 38.023438 85.460938 "/>
<path style=" stroke:none;fill-rule:nonzero;fill:rgb(99.607843%,99.607843%,99.607843%);fill-opacity:1;" d="M 40.675781 97.472656 C 41.660156 98.070312 42.679688 99.429688 43.523438 100.261719 C 44.25 100.980469 45.035156 101.644531 45.796875 102.316406 C 44.257812 104.019531 42.476562 105.519531 40.859375 107.148438 L 40.742188 107.214844 C 40.226562 107.097656 36.480469 103.070312 35.871094 102.347656 C 37.425781 100.933594 39.269531 99.058594 40.675781 97.472656 Z M 40.675781 97.472656 "/>
<path style=" stroke:none;fill-rule:nonzero;fill:rgb(5.098039%,16.470589%,20.392157%);fill-opacity:1;" d="M 38.023438 85.460938 C 37.472656 85.21875 36.75 85.125 36.160156 84.96875 C 34.867188 84.621094 33.53125 84.230469 32.28125 83.75 C 32.066406 83.667969 31.851562 83.582031 31.636719 83.492188 C 31.425781 83.40625 31.210938 83.316406 31 83.222656 C 30.785156 83.132812 30.574219 83.039062 30.363281 82.941406 C 30.152344 82.847656 29.945312 82.75 29.734375 82.648438 C 29.527344 82.550781 29.316406 82.449219 29.109375 82.34375 C 28.902344 82.242188 28.699219 82.136719 28.492188 82.03125 C 28.285156 81.921875 28.082031 81.816406 27.878906 81.703125 C 27.675781 81.59375 27.472656 81.480469 27.273438 81.367188 C 27.070312 81.253906 26.871094 81.136719 26.671875 81.019531 C 26.472656 80.902344 26.273438 80.78125 26.078125 80.660156 C 25.878906 80.539062 25.683594 80.414062 25.488281 80.289062 C 25.296875 80.164062 25.101562 80.039062 24.910156 79.910156 C 24.71875 79.78125 24.527344 79.652344 24.335938 79.519531 C 24.144531 79.386719 23.957031 79.253906 23.769531 79.117188 C 23.582031 78.984375 23.394531 78.847656 23.210938 78.707031 C 23.023438 78.570312 22.839844 78.429688 22.65625 78.285156 C 22.472656 78.144531 22.292969 78 22.113281 77.855469 C 21.933594 77.710938 21.753906 77.5625 21.578125 77.414062 C 21.398438 77.265625 21.222656 77.117188 21.046875 76.964844 C 20.875 76.8125 20.699219 76.660156 20.527344 76.503906 C 20.355469 76.351562 20.183594 76.195312 20.015625 76.035156 C 19.847656 75.878906 19.679688 75.71875 19.511719 75.558594 C 19.347656 75.398438 19.183594 75.234375 19.019531 75.070312 C 18.855469 74.90625 18.691406 74.742188 18.53125 74.574219 C 18.371094 74.410156 18.214844 74.238281 18.054688 74.070312 C 17.898438 73.902344 17.742188 73.730469 17.589844 73.558594 C 17.433594 73.386719 17.28125 73.210938 17.128906 73.035156 C 16.980469 72.859375 16.828125 72.683594 16.679688 72.507812 C 16.535156 72.328125 16.386719 72.148438 16.242188 71.96875 C 16.097656 71.789062 15.953125 71.605469 15.8125 71.421875 C 15.671875 71.238281 15.53125 71.054688 15.394531 70.871094 C 15.253906 70.683594 15.121094 70.496094 14.984375 70.308594 C 9.195312 62.300781 6.898438 51.839844 8.472656 42.121094 C 8.523438 41.808594 8.578125 41.492188 8.636719 41.179688 C 8.695312 40.867188 8.757812 40.554688 8.824219 40.242188 C 8.890625 39.929688 8.960938 39.621094 9.035156 39.3125 C 9.109375 39 9.1875 38.691406 9.269531 38.382812 C 9.351562 38.078125 9.4375 37.769531 9.523438 37.464844 C 9.613281 37.160156 9.707031 36.855469 9.804688 36.550781 C 9.902344 36.246094 10.003906 35.945312 10.105469 35.644531 C 10.210938 35.34375 10.320312 35.042969 10.429688 34.746094 C 10.542969 34.445312 10.65625 34.148438 10.777344 33.855469 C 10.894531 33.558594 11.019531 33.265625 11.144531 32.972656 C 11.273438 32.679688 11.402344 32.390625 11.535156 32.101562 C 11.667969 31.8125 11.808594 31.523438 11.949219 31.238281 C 12.089844 30.953125 12.234375 30.667969 12.378906 30.386719 C 12.527344 30.105469 12.679688 29.824219 12.835938 29.546875 C 12.988281 29.269531 13.148438 28.992188 13.308594 28.71875 C 13.472656 28.441406 13.636719 28.171875 13.804688 27.898438 C 13.972656 27.628906 14.144531 27.359375 14.320312 27.09375 C 14.496094 26.828125 14.671875 26.566406 14.855469 26.304688 C 15.035156 26.042969 15.21875 25.78125 15.410156 25.523438 C 15.597656 25.269531 15.789062 25.011719 15.980469 24.761719 C 16.175781 24.507812 16.375 24.257812 16.574219 24.011719 C 16.773438 23.765625 16.980469 23.519531 17.183594 23.277344 C 17.390625 23.035156 17.601562 22.792969 17.8125 22.558594 C 18.027344 22.320312 18.242188 22.085938 18.460938 21.851562 C 18.679688 21.621094 18.898438 21.390625 19.125 21.164062 C 19.347656 20.9375 19.574219 20.714844 19.804688 20.496094 C 20.035156 20.273438 20.265625 20.054688 20.5 19.839844 C 20.734375 19.625 20.972656 19.414062 21.214844 19.203125 C 21.453125 18.996094 21.695312 18.789062 21.941406 18.585938 C 22.1875 18.382812 22.433594 18.183594 22.6875 17.988281 C 22.9375 17.789062 23.1875 17.59375 23.445312 17.40625 C 23.699219 17.214844 23.957031 17.027344 24.214844 16.84375 C 24.464844 16.664062 24.714844 16.488281 24.96875 16.316406 C 25.222656 16.140625 25.476562 15.972656 25.734375 15.804688 C 25.992188 15.640625 26.25 15.476562 26.511719 15.316406 C 26.773438 15.15625 27.039062 15 27.304688 14.847656 C 27.566406 14.695312 27.835938 14.542969 28.105469 14.398438 C 28.375 14.25 28.644531 14.105469 28.917969 13.96875 C 29.191406 13.828125 29.464844 13.691406 29.738281 13.558594 C 30.015625 13.425781 30.292969 13.296875 30.574219 13.167969 C 30.851562 13.042969 31.132812 12.921875 31.414062 12.800781 C 31.699219 12.683594 31.980469 12.566406 32.265625 12.453125 C 32.550781 12.34375 32.839844 12.234375 33.125 12.128906 C 33.414062 12.023438 33.703125 11.921875 33.992188 11.824219 C 34.285156 11.726562 34.574219 11.632812 34.867188 11.542969 C 35.160156 11.449219 35.453125 11.363281 35.75 11.28125 C 36.042969 11.199219 36.339844 11.117188 36.636719 11.042969 C 36.933594 10.964844 37.230469 10.894531 37.53125 10.824219 C 37.828125 10.757812 38.128906 10.691406 38.429688 10.632812 C 38.730469 10.570312 39.03125 10.511719 39.332031 10.460938 C 39.632812 10.40625 39.9375 10.355469 40.238281 10.308594 C 40.542969 10.265625 40.84375 10.222656 41.148438 10.183594 C 41.453125 10.144531 41.757812 10.109375 42.0625 10.078125 C 42.367188 10.046875 42.671875 10.019531 42.976562 10 C 43.285156 9.976562 43.589844 9.957031 43.894531 9.941406 C 44.203125 9.925781 44.507812 9.914062 44.8125 9.902344 C 45.121094 9.894531 45.425781 9.890625 45.734375 9.890625 C 46.039062 9.890625 46.347656 9.894531 46.652344 9.902344 C 46.957031 9.910156 47.265625 9.917969 47.570312 9.933594 C 47.878906 9.949219 48.183594 9.96875 48.488281 9.992188 C 48.792969 10.011719 49.097656 10.039062 49.402344 10.070312 C 49.710938 10.097656 50.011719 10.132812 50.316406 10.171875 C 50.621094 10.207031 50.925781 10.25 51.230469 10.292969 C 51.53125 10.339844 51.835938 10.386719 52.136719 10.441406 C 60.445312 11.8125 68.191406 16.429688 73.875 22.5625 C 75.492188 24.304688 76.894531 26.1875 78.277344 28.117188 L 78.3125 28.195312 C 78.789062 29.253906 79.515625 30.210938 80.042969 31.25 C 81.449219 33.988281 82.589844 37.023438 83.363281 40 L 96.914062 39.980469 C 99.011719 39.976562 101.289062 40.09375 103.355469 39.984375 C 107.59375 39.882812 113.550781 39.867188 116.808594 42.945312 C 119.0625 45.070312 119.804688 48.316406 119.871094 51.304688 C 119.949219 56.679688 119.972656 62.058594 119.941406 67.433594 L 119.933594 90.484375 L 119.933594 101.511719 C 119.945312 104.019531 120.160156 106.679688 119.75 109.15625 C 119.40625 111.242188 118.429688 113.113281 116.972656 114.636719 C 114.820312 116.882812 112.148438 117.890625 109.066406 117.941406 C 105.714844 117.996094 102.371094 117.949219 99.019531 117.941406 L 83.910156 117.9375 L 76.894531 117.945312 C 74.828125 117.957031 72.675781 118.117188 70.636719 117.710938 C 68.644531 117.3125 66.859375 116.292969 65.410156 114.886719 C 62.964844 112.511719 62.1875 109.566406 62.152344 106.238281 C 62.09375 100.722656 62.152344 95.199219 62.152344 89.683594 C 62.152344 87.390625 62.203125 85.085938 62.128906 82.796875 C 58.25 84.371094 54.671875 85.40625 50.515625 85.957031 C 49.292969 86.117188 48.050781 86.269531 46.820312 86.292969 C 45.601562 86.1875 44.351562 86.242188 43.125 86.179688 C 41.394531 86.089844 39.71875 85.804688 38.023438 85.460938 Z M 38.023438 85.460938 "/>
<path style=" stroke:none;fill-rule:nonzero;fill:rgb(99.607843%,99.607843%,99.607843%);fill-opacity:1;" d="M 46.164062 27.738281 C 47.40625 28.722656 48.824219 30.628906 49.851562 31.890625 C 51.898438 34.421875 53.914062 36.980469 55.894531 39.566406 C 58.152344 42.464844 61.269531 46.070312 62.613281 49.472656 C 63.144531 50.8125 63.316406 52.3125 63.164062 53.742188 C 63.152344 53.882812 63.132812 54.023438 63.113281 54.164062 C 63.089844 54.304688 63.066406 54.445312 63.039062 54.582031 C 63.011719 54.722656 62.980469 54.859375 62.945312 55 C 62.910156 55.136719 62.871094 55.273438 62.828125 55.40625 C 62.789062 55.542969 62.742188 55.675781 62.695312 55.8125 C 62.644531 55.945312 62.59375 56.074219 62.539062 56.207031 C 62.484375 56.335938 62.425781 56.464844 62.363281 56.59375 C 62.300781 56.722656 62.238281 56.847656 62.167969 56.972656 C 62.101562 57.097656 62.03125 57.21875 61.957031 57.339844 C 61.882812 57.460938 61.804688 57.578125 61.726562 57.695312 C 61.644531 57.8125 61.5625 57.929688 61.476562 58.042969 C 61.390625 58.15625 61.300781 58.265625 61.210938 58.375 C 61.117188 58.480469 61.023438 58.585938 60.929688 58.691406 C 60.832031 58.796875 60.730469 58.894531 60.628906 58.996094 C 60.527344 59.09375 60.425781 59.191406 60.316406 59.28125 C 60.210938 59.375 60.101562 59.46875 59.992188 59.554688 C 58.160156 61.027344 55.882812 61.792969 53.53125 61.515625 C 50.988281 61.21875 49.078125 59.980469 47.511719 58.007812 C 47.898438 60.214844 48.738281 62.261719 49.523438 64.347656 C 50.210938 66.132812 50.851562 67.933594 51.445312 69.75 C 49.410156 69.773438 47.375 69.753906 45.34375 69.753906 L 40.757812 69.75 C 42.234375 65.636719 43.9375 61.535156 44.898438 57.257812 C 44.5625 57.890625 44.121094 58.480469 43.628906 59 C 43.535156 59.09375 43.441406 59.1875 43.347656 59.28125 C 43.25 59.375 43.152344 59.460938 43.050781 59.550781 C 42.949219 59.636719 42.847656 59.722656 42.742188 59.804688 C 42.636719 59.886719 42.53125 59.964844 42.421875 60.042969 C 42.3125 60.117188 42.203125 60.191406 42.089844 60.265625 C 41.976562 60.335938 41.863281 60.402344 41.746094 60.46875 C 41.628906 60.535156 41.511719 60.597656 41.394531 60.660156 C 41.277344 60.71875 41.15625 60.777344 41.035156 60.828125 C 40.910156 60.882812 40.789062 60.933594 40.664062 60.984375 C 40.539062 61.03125 40.414062 61.074219 40.289062 61.117188 C 40.164062 61.160156 40.035156 61.199219 39.90625 61.234375 C 39.777344 61.269531 39.648438 61.300781 39.519531 61.332031 C 39.390625 61.359375 39.257812 61.386719 39.128906 61.410156 C 38.996094 61.433594 38.863281 61.453125 38.730469 61.46875 C 38.601562 61.484375 38.46875 61.5 38.335938 61.507812 C 38.203125 61.519531 38.070312 61.523438 37.9375 61.527344 C 35.640625 61.574219 33.339844 60.597656 31.707031 59 C 30.046875 57.371094 29.191406 55.167969 29.175781 52.855469 C 29.167969 51.617188 29.40625 50.449219 29.902344 49.3125 C 31.15625 46.4375 33.128906 43.84375 34.992188 41.34375 C 37.277344 38.234375 39.675781 35.222656 42.191406 32.300781 C 43.5 30.761719 44.75 29.179688 46.164062 27.738281 Z M 46.164062 27.738281 "/>
<path style=" stroke:none;fill-rule:nonzero;fill:rgb(58.823532%,71.372551%,72.549021%);fill-opacity:1;" d="M 99.433594 48.09375 L 105.855469 48.089844 C 107.300781 48.082031 108.882812 47.894531 110.304688 48.1875 C 110.714844 48.273438 111.121094 48.492188 111.429688 48.78125 C 111.957031 49.277344 111.964844 50.058594 111.984375 50.730469 C 112.023438 52.070312 111.960938 53.414062 111.953125 54.753906 L 111.960938 61.238281 L 111.964844 84.246094 L 111.957031 100.78125 L 111.945312 105.308594 C 111.949219 106.175781 112.007812 107.0625 111.953125 107.925781 C 111.921875 108.449219 111.761719 108.921875 111.386719 109.304688 C 111.050781 109.648438 110.691406 109.789062 110.21875 109.839844 C 109.1875 109.953125 108.09375 109.882812 107.058594 109.878906 L 101.496094 109.875 L 82.804688 109.90625 C 79.589844 109.90625 76.347656 109.992188 73.136719 109.878906 C 72.246094 109.847656 71.429688 109.828125 70.789062 109.113281 C 70.464844 108.753906 70.253906 108.359375 70.191406 107.878906 C 70.003906 106.359375 70.121094 104.742188 70.128906 103.210938 L 70.128906 95.273438 L 70.148438 82.339844 C 70.148438 79.488281 70.0625 76.609375 70.199219 73.761719 C 70.453125 68.53125 73.734375 63.777344 77.710938 60.5625 C 79.058594 59.46875 80.589844 58.601562 81.867188 57.429688 C 82.269531 57.0625 82.648438 56.652344 82.914062 56.167969 C 84.042969 54.136719 84.097656 50.4375 84.183594 48.125 Z M 99.433594 48.09375 "/>
<path style=" stroke:none;fill-rule:nonzero;fill:rgb(5.098039%,16.470589%,20.392157%);fill-opacity:1;" d="M 87.941406 90.339844 C 94.648438 90.1875 101.382812 90.332031 108.09375 90.375 L 108.089844 93.75 L 87.9375 93.75 Z M 88.804688 68.15625 L 108.0625 68.125 L 108.0625 71.625 L 87.9375 71.625 L 87.9375 68.199219 Z M 87.941406 96.335938 L 108.0625 96.347656 C 108.066406 97.507812 108.136719 98.714844 108.042969 99.875 C 101.339844 99.820312 94.636719 99.820312 87.9375 99.875 Z M 87.941406 74.152344 C 94.648438 74.148438 101.363281 74.253906 108.0625 74.125 C 108.050781 75.320312 108.066406 76.523438 108.023438 77.71875 L 87.9375 77.71875 Z M 81.914062 65.3125 C 82.871094 65.289062 83.574219 65.476562 84.285156 66.148438 C 84.824219 66.65625 85.15625 67.3125 85.15625 68.066406 C 85.160156 69.15625 84.269531 69.972656 83.558594 70.695312 C 82.664062 71.601562 80.476562 73.898438 79.378906 74.414062 C 79.09375 74.546875 78.847656 74.570312 78.535156 74.566406 C 77.25 74.554688 76.503906 73.640625 75.675781 72.800781 C 74.726562 71.835938 72.871094 70.535156 72.785156 69.070312 C 72.746094 68.363281 73.078125 67.683594 73.558594 67.183594 C 74.054688 66.667969 74.761719 66.304688 75.488281 66.296875 C 76.792969 66.28125 77.695312 67.554688 78.523438 68.394531 C 79.554688 67.308594 80.570312 66.007812 81.914062 65.3125 Z M 82.054688 88.066406 C 82.941406 88.050781 83.714844 88.195312 84.394531 88.820312 C 84.871094 89.253906 85.1875 89.871094 85.199219 90.519531 C 85.207031 90.890625 85.117188 91.300781 84.933594 91.625 C 84.488281 92.398438 83.691406 93.058594 83.078125 93.699219 C 82.339844 94.472656 81.621094 95.261719 80.863281 96.015625 C 80.183594 96.6875 79.527344 97.316406 78.492188 97.28125 C 77.339844 97.242188 76.328125 96 75.597656 95.222656 C 74.585938 94.238281 72.742188 92.933594 72.667969 91.386719 C 72.632812 90.683594 72.949219 89.976562 73.429688 89.472656 C 73.925781 88.953125 74.65625 88.582031 75.386719 88.582031 C 76.765625 88.574219 77.878906 90.113281 78.769531 91.019531 C 79.734375 89.859375 80.640625 88.679688 82.054688 88.066406 Z M 82.054688 88.066406 "/>
</g>
</svg>
